<svg t="1585810758639" class="icon" viewBox="0 0 1024 1024" version="1.1" xmlns="http://www.w3.org/2000/svg" p-id="5194" width="200" height="200"><path d="M643.7 195.6l63.2 63.4-152.6 153V195.6h89.4z m-324.8 63.4l152.6 153V195.6h-89.4l-63.2 63.4z m83-83.2h89.4v255.8l21.6 21.6 21.6-21.6V175.8h89.4l-111-111.2-111 111.2zM454.3 512l-21.6-21.6H175.5v-89.6L64.5 512l111 111.2v-89.6h257.2l21.6-21.6z m158.6-41.4h215.8v-89.6l-63.2-63.4-152.6 153zM959.5 512L848.5 400.8v89.6H593.1L571.5 512l21.6 21.6H848.5v89.6l111-111.2zM195.3 353l65-63.4 180.6 181h30.6V440l-180.6-181 63.2-63.4H195.3v157.4z m633.4-157.4h-157l63.2 63.4-180.6 181v30.6h30.6l180.6-181 63.2 63.4V195.6zM471.5 828.4V612.2l-152.6 153 63.2 63.4h89.4zM195.3 470.6h217.6l-152.6-153-65 63.4v89.6z m633.4 200.4l-63.2 63.4-180.6-181h-30.6V584l180.6 181-63.2 63.4h157v-157.4z m0-117.6H612.9l152.6 153 63.2-63.4v-89.6z m-121.8 211.6L554.3 612v216.2h89.4l63.2-63.2zM260.3 706.4l152.6-153H195.3v89.6l65 63.4z m363.6 141.8H534.5V592.4l-21.6-21.6-21.6 21.6v255.8h-89.4l111 111.2 111-111.2z m-333-83.2l180.6-181v-30.6h-30.6l-180.6 181-65-63.4v157.4h158.8l-63.2-63.4z" p-id="5195"></path></svg>