<svg t="1585230872359" class="icon" viewBox="0 0 1024 1024" version="1.1" xmlns="http://www.w3.org/2000/svg" p-id="9571" width="200" height="200"><path d="M512 800c-247.42 0-448-71.63-448-160v160c0 88.37 200.58 160 448 160s448-71.63 448-160V640c0 88.37-200.58 160-448 160z" p-id="9572"></path><path d="M512 608c-247.42 0-448-71.63-448-160v160c0 88.37 200.58 160 448 160s448-71.63 448-160V448c0 88.37-200.58 160-448 160z" p-id="9573"></path><path d="M512 416c-247.42 0-448-71.63-448-160v160c0 88.37 200.58 160 448 160s448-71.63 448-160V256c0 88.37-200.58 160-448 160z" p-id="9574"></path><path d="M64 224a448 160 0 1 0 896 0 448 160 0 1 0-896 0Z" p-id="9575"></path></svg>