<svg t="1585212153256" class="icon" viewBox="0 0 1304 1024" version="1.1" xmlns="http://www.w3.org/2000/svg" p-id="3226" width="200" height="200"><path d="M239.083317 40.657126A140.310345 140.310345 0 1 1 140.425348 0.016256a134.927688 134.927688 0 0 1 98.657969 40.64087z m0 371.583989a140.310345 140.310345 0 1 1-98.657969-40.64087 134.927688 134.927688 0 0 1 98.657969 40.64087z m0 371.403362a140.310345 140.310345 0 1 1-98.657969-40.64087 134.927688 134.927688 0 0 1 98.657969 40.64087zM1301.453717 69.737926v139.29884a23.300765 23.300765 0 0 1-23.084014 23.084014H395.758386a23.300765 23.300765 0 0 1-23.084014-23.084014V69.737926a23.300765 23.300765 0 0 1 23.084014-23.084014h882.430691a22.36151 22.36151 0 0 1 16.256348 6.827666 21.422254 21.422254 0 0 1 6.972167 16.256348z m0 371.403363v139.298839a23.300765 23.300765 0 0 1-23.084014 23.084014H395.758386a23.300765 23.300765 0 0 1-23.084014-23.084014v-139.298839a23.300765 23.300765 0 0 1 23.084014-23.084014h882.430691a22.36151 22.36151 0 0 1 16.256348 6.827666 21.928007 21.928007 0 0 1 7.008292 16.256348z m0 371.583988v139.298839a23.300765 23.300765 0 0 1-23.084014 23.084014H395.758386a23.300765 23.300765 0 0 1-23.084014-23.084014V812.833653a23.300765 23.300765 0 0 1 23.084014-23.084014h882.430691a22.36151 22.36151 0 0 1 16.256348 6.827666 21.675131 21.675131 0 0 1 7.008292 16.256348z" p-id="3227"></path></svg>