<svg t="1587713890090" class="icon" viewBox="0 0 1025 1024" version="1.1" xmlns="http://www.w3.org/2000/svg" p-id="8226" width="200" height="200"><path d="M512 416l-96 40.73v61.09c0 56.51 41 109.35 96 122.18 55-12.83 96-65.67 96-122.18v-61.09z m0 111.9h74.67c-5.65 41.95-35 79.32-74.67 91V528h-74.67v-58L512 438.3z" p-id="8227" fill="#ffffff"></path><path d="M896 192H672v-64a64.19 64.19 0 0 0-64-64H416a64.19 64.19 0 0 0-64 64v64H128a64.19 64.19 0 0 0-64 64v512a64.19 64.19 0 0 0 64 64h768a64.19 64.19 0 0 0 64-64V256a64.19 64.19 0 0 0-64-64z m-480-64h192v64H416z m318.19 457.25l-46 77.5a11.37 11.37 0 0 1-14 4.93l-57.3-22.4a178 178 0 0 1-38.89 22l-8.74 59.36a11.13 11.13 0 0 1-11.35 9.36h-92a11.13 11.13 0 0 1-11.28-9.41l-8.74-59.36a169.29 169.29 0 0 1-38.89-22l-57.3 22.4c-5.06 1.79-11.28 0-14-4.93l-46-77.5a11.1 11.1 0 0 1 2.76-14.34l48.56-37a150.38 150.38 0 0 1 0-43.9l-48.56-37a10.85 10.85 0 0 1-2.76-14.34l46-77.5a11.37 11.37 0 0 1 14-4.93l57.3 22.4a178 178 0 0 1 38.89-22l8.74-59.36a11.13 11.13 0 0 1 11.24-9.23h92a11.13 11.13 0 0 1 11.28 9.41l8.74 59.36a169.3 169.3 0 0 1 38.89 22l57.3-22.4c5.06-1.79 11.28 0 14 4.93l46 77.5a11.1 11.1 0 0 1-2.76 14.34l-48.56 37a150.38 150.38 0 0 1 0 43.9l48.56 37a11.1 11.1 0 0 1 2.87 14.21z" p-id="8228" fill="#ffffff"></path></svg>